<svg xmlns="http://www.w3.org/2000/svg" viewBox="0 0 300 600">
  <defs>
    <linearGradient id="cocoBody" x1="0" y1="0" x2="1" y2="0">
      <stop offset="0" stop-color="#eef4e6"/>
      <stop offset=".18" stop-color="#ffffff"/>
      <stop offset=".52" stop-color="#fbfdf8"/>
      <stop offset=".82" stop-color="#e7efdd"/>
      <stop offset="1" stop-color="#cdd9bd"/>
    </linearGradient>
    <linearGradient id="cocoRim" x1="0" y1="0" x2="1" y2="0">
      <stop offset="0" stop-color="#b9c4a9"/>
      <stop offset=".5" stop-color="#eef2e4"/>
      <stop offset="1" stop-color="#9aa789"/>
    </linearGradient>
    <linearGradient id="cocoBand" x1="0" y1="0" x2="0" y2="1">
      <stop offset="0" stop-color="#2f7d3c"/>
      <stop offset=".5" stop-color="#3f9a4a"/>
      <stop offset="1" stop-color="#2a6e35"/>
    </linearGradient>
    <radialGradient id="cocoShine" cx=".3" cy=".25" r=".75">
      <stop offset="0" stop-color="#ffffff" stop-opacity=".85"/>
      <stop offset="1" stop-color="#ffffff" stop-opacity="0"/>
    </radialGradient>
  </defs>

  <ellipse cx="150" cy="527" rx="78" ry="16" fill="#9aa789" opacity=".55"/>

  <path d="M72 108 h156 v392 a78 26 0 0 1 -78 26 a78 26 0 0 1 -78 -26 Z" fill="url(#cocoBody)"/>
  <path d="M72 108 h156 v18 h-156 Z" fill="#dfe6d2"/>

  <ellipse cx="150" cy="108" rx="78" ry="17" fill="url(#cocoRim)"/>
  <ellipse cx="150" cy="103" rx="66" ry="12" fill="#e7ecd9"/>
  <ellipse cx="150" cy="101" rx="46" ry="7" fill="#f4f7ee"/>
  <rect x="140" y="70" width="20" height="34" rx="4" fill="url(#cocoRim)"/>
  <ellipse cx="150" cy="70" rx="10" ry="4" fill="#c7d1b6"/>

  <path d="M72 210 h156 v170 h-156 Z" fill="url(#cocoBand)"/>
  <path d="M72 210 h156 v14 h-156 Z" fill="#265e2e"/>
  <path d="M72 366 h156 v14 h-156 Z" fill="#245a2c"/>

  <g transform="translate(150 262)" fill="#ffe9a8">
    <path d="M0 -34 C -3 -10 -3 6 0 24 C 3 6 3 -10 0 -34 Z"/>
    <path d="M0 -20 C -22 -30 -34 -18 -40 -2 C -20 -4 -8 -10 0 -20 Z"/>
    <path d="M0 -20 C 22 -30 34 -18 40 -2 C 20 -4 8 -10 0 -20 Z"/>
    <path d="M0 -12 C -26 -14 -38 2 -38 18 C -20 12 -8 2 0 -12 Z"/>
    <path d="M0 -12 C 26 -14 38 2 38 18 C 20 12 8 2 0 -12 Z"/>
    <path d="M0 -2 C -20 4 -26 20 -22 34 C -8 24 -2 12 0 -2 Z"/>
    <path d="M0 -2 C 20 4 26 20 22 34 C 8 24 2 12 0 -2 Z"/>
  </g>
  <rect x="147" y="284" width="6" height="46" rx="2" fill="#8a5a2b"/>

  <text x="150" y="252" text-anchor="middle" font-family="Archivo, sans-serif" font-weight="800" font-size="21" fill="#fffef4" letter-spacing="1">COCO PALM</text>

  <text x="150" y="418" text-anchor="middle" font-family="Archivo, sans-serif" font-weight="900" font-size="30" fill="#2a6e35" letter-spacing="-.5">椰树牌</text>
  <text x="150" y="450" text-anchor="middle" font-family="Archivo, sans-serif" font-weight="700" font-size="19" fill="#3f9a4a">椰子汁 · 铁罐</text>
  <text x="150" y="476" text-anchor="middle" font-family="Archivo, sans-serif" font-weight="600" font-size="12" fill="#7c8a6c" letter-spacing="1">100% NATURAL COCONUT JUICE</text>

  <path d="M72 108 h156 v392 a78 26 0 0 1 -78 26 a78 26 0 0 1 -78 -26 Z" fill="url(#cocoShine)" opacity=".5"/>
</svg>
